<svg height="512pt" viewBox="0 0 512 512" width="512pt" xmlns="http://www.w3.org/2000/svg"><path fill="#3d85cd"  d="m480 512h-448c-17.644531 0-32-14.355469-32-32v-149.332031c0-5.890625 4.777344-10.667969 10.667969-10.667969 5.886719 0 10.664062 4.777344 10.664062 10.667969v149.332031c0 5.867188 4.78125 10.667969 10.667969 10.667969h448c5.886719 0 10.667969-4.800781 10.667969-10.667969v-448c0-5.867188-4.78125-10.667969-10.667969-10.667969h-149.332031c-5.890625 0-10.667969-4.777343-10.667969-10.664062 0-5.890625 4.777344-10.667969 10.667969-10.667969h149.332031c17.644531 0 32 14.355469 32 32v448c0 17.644531-14.355469 32-32 32zm0 0"/><path fill="#3d85cd"  d="m437.332031 448c-2.730469 0-5.460937-1.046875-7.550781-3.113281l-128-128c-4.160156-4.160157-4.160156-10.925781 0-15.085938 4.160156-4.15625 10.921875-4.15625 15.082031 0l128 128c4.160157 4.160157 4.160157 10.925781 0 15.085938-2.070312 2.066406-4.800781 3.113281-7.53125 3.113281zm0 0"/><path fill="#3d85cd"  d="m309.332031 405.332031c-5.886719 0-10.664062-4.777343-10.664062-10.664062v-85.335938c0-5.886719 4.777343-10.664062 10.664062-10.664062h85.335938c5.886719 0 10.664062 4.777343 10.664062 10.664062 0 5.890625-4.777343 10.667969-10.664062 10.667969h-74.667969v74.667969c0 5.886719-4.777344 10.664062-10.667969 10.664062zm0 0"/><path fill="#3d85cd"  d="m266.667969 298.667969h-42.667969c-5.886719 0-10.667969-4.78125-10.667969-10.667969s4.78125-10.667969 10.667969-10.667969h42.667969c1.042969 0 2.046875-.148437 2.984375-.425781 5.695312-1.640625 11.585937 1.535156 13.25 7.210938 1.664062 5.652343-1.558594 11.585937-7.210938 13.25-2.902344.851562-5.929687 1.300781-9.023437 1.300781zm-106.667969 0h-42.667969c-5.886719 0-10.664062-4.78125-10.664062-10.667969s4.777343-10.667969 10.664062-10.667969h42.667969c5.886719 0 10.667969 4.78125 10.667969 10.667969s-4.78125 10.667969-10.667969 10.667969zm-106.667969 0h-21.332031c-10.964844 0-21.011719-5.503907-26.921875-14.722657-3.179687-4.949218-1.75-11.5625 3.21875-14.71875 4.992187-3.199218 11.566406-1.75 14.742187 3.222657 1.964844 3.050781 5.3125 4.882812 8.960938 4.882812h21.332031c5.890625 0 10.667969 4.78125 10.667969 10.667969s-4.777344 10.667969-10.667969 10.667969zm234.667969-57.921875c-5.886719 0-10.667969-4.777344-10.667969-10.667969v-42.664063c0-5.890624 4.78125-10.667968 10.667969-10.667968s10.667969 4.777344 10.667969 10.667968v42.664063c0 5.910156-4.78125 10.667969-10.667969 10.667969zm-277.332031-15.230469c-5.890625 0-10.667969-4.78125-10.667969-10.667969v-42.667968c0-5.886719 4.777344-10.664063 10.667969-10.664063 5.886719 0 10.664062 4.777344 10.664062 10.664063v42.667968c0 5.910156-4.777343 10.667969-10.664062 10.667969zm277.332031-91.4375c-5.886719 0-10.667969-4.777344-10.667969-10.664063v-42.667968c0-5.886719 4.78125-10.667969 10.667969-10.667969s10.667969 4.78125 10.667969 10.667969v42.667968c0 5.910157-4.78125 10.664063-10.667969 10.664063zm-277.332031-15.230469c-5.890625 0-10.667969-4.777344-10.667969-10.667968v-42.664063c0-5.890625 4.777344-10.667969 10.667969-10.667969 5.886719 0 10.664062 4.777344 10.664062 10.667969v42.664063c0 5.910156-4.777343 10.667968-10.664062 10.667968zm272.105469-90.15625c-2.988282 0-5.953126-1.257812-8.042969-3.667968-2.027344-2.367188-4.96875-3.691407-8.0625-3.691407h-24.386719c-5.886719 0-10.664062-4.777343-10.664062-10.664062 0-5.890625 4.777343-10.667969 10.664062-10.667969h24.386719c9.277343 0 18.089843 4.011719 24.167969 11.03125 3.863281 4.457031 3.394531 11.175781-1.066407 15.058594-2.027343 1.75-4.5 2.601562-6.996093 2.601562zm-252.375-7.230468c-5.308594 0-10.472657-3.777344-11.242188-9.066407-.851562-5.824219 2.433594-11.179687 8.257812-12.054687 1.472657-.210938 3.007813-.339844 4.585938-.339844h39.617188c5.886718 0 10.664062 4.777344 10.664062 10.667969 0 5.886719-4.777344 10.664062-10.664062 10.664062h-39.617188c-.535156.085938-1.066406.128907-1.601562.128907zm147.882812-.128907h-42.664062c-5.890626 0-10.667969-4.777343-10.667969-10.664062 0-5.890625 4.777343-10.667969 10.667969-10.667969h42.664062c5.890625 0 10.667969 4.777344 10.667969 10.667969 0 5.886719-4.777344 10.664062-10.667969 10.664062zm0 0"/></svg>
