<?xml version="1.0" encoding="iso-8859-1"?>
<!-- Generator: Adobe Illustrator 19.0.0, SVG Export Plug-In . SVG Version: 6.00 Build 0)  -->
<svg version="1.1" id="Capa_1" xmlns="http://www.w3.org/2000/svg" xmlns:xlink="http://www.w3.org/1999/xlink" x="0px" y="0px"
	 viewBox="0 0 55 55" style="enable-background:new 0 0 55 55;" xml:space="preserve">
<g>
	<g>
		<path fill="#0e1d41" stroke="#0e1d41"  d="M47,53V13.75c0-0.405-0.245-0.771-0.62-0.925L38,9.384V5.816C39.161,5.402,40,4.302,40,3c0-1.654-1.346-3-3-3
			s-3,1.346-3,3c0,1.302,0.839,2.402,2,2.816v2.746l-3.62-1.487c-0.035-0.015-0.071-0.011-0.107-0.021
			c-0.055-0.016-0.107-0.026-0.164-0.032c-0.092-0.01-0.18-0.007-0.269,0.008c-0.032,0.005-0.063-0.005-0.095,0.003l-11,2.893
			C20.307,10.041,20,10.439,20,10.893v20.481l-1.808-0.355c-0.002,0-0.004,0.001-0.006,0c-0.132-0.025-0.271-0.026-0.41,0.007
			l-12,2.75C5.322,33.88,5,34.284,5,34.75V53H0v2h6h12h14h14h9v-2H47z M37,2c0.552,0,1,0.448,1,1s-0.448,1-1,1s-1-0.448-1-1
			S36.448,2,37,2z M22,11.664l9-2.367v24.238l-9-1.768V11.664z M7,35.547l10-2.292V53H7V35.547z M19,33.216l12,2.356V53H19V33.216z
			 M33,53V35v-0.25V9.491l12,4.928V53H33z"/>
		<rect x="23" y="29" width="7" height="2"/>
		<rect x="23" y="24" width="7" height="2"/>
		<rect x="23" y="19" width="7" height="2"/>
		<rect x="23" y="14" width="7" height="2"/>
		<rect x="8" y="38" width="8" height="2"/>
		<rect x="8" y="43" width="8" height="2"/>
		<rect x="8" y="48" width="8" height="2"/>
	</g>
</g>
<g>
</g>
<g>
</g>
<g>
</g>
<g>
</g>
<g>
</g>
<g>
</g>
<g>
</g>
<g>
</g>
<g>
</g>
<g>
</g>
<g>
</g>
<g>
</g>
<g>
</g>
<g>
</g>
<g>
</g>
</svg>
