<?xml version="1.0" encoding="iso-8859-1"?>
<!-- Generator: Adobe Illustrator 19.0.0, SVG Export Plug-In . SVG Version: 6.00 Build 0)  -->
<svg version="1.1" id="Layer_1" xmlns="http://www.w3.org/2000/svg" xmlns:xlink="http://www.w3.org/1999/xlink" x="0px" y="0px"
	 viewBox="0 0 511.999 511.999" style="enable-background:new 0 0 511.999 511.999;" xml:space="preserve">
<g>
	<g>
		<path fill="#0e1d41" stroke="#0e1d41" d="M420.344,379.057c-0.144-0.716-0.358-1.421-0.638-2.094c-0.28-0.683-0.627-1.333-1.031-1.938
			c-0.402-0.616-0.873-1.187-1.388-1.703c-0.515-0.516-1.088-0.987-1.704-1.389c-0.605-0.403-1.255-0.75-1.937-1.031
			c-0.673-0.28-1.378-0.493-2.095-0.638c-1.445-0.291-2.935-0.291-4.38,0c-0.718,0.146-1.411,0.358-2.095,0.638
			c-0.672,0.28-1.322,0.627-1.927,1.031c-0.617,0.402-1.188,0.873-1.704,1.389c-0.515,0.515-0.986,1.086-1.4,1.703
			c-0.402,0.605-0.75,1.255-1.031,1.938c-0.28,0.672-0.492,1.377-0.638,2.094c-0.146,0.718-0.212,1.457-0.212,2.184
			c0,0.739,0.067,1.469,0.212,2.195c0.147,0.718,0.358,1.411,0.638,2.095c0.291,0.673,0.628,1.322,1.042,1.927
			c0.403,0.617,0.874,1.188,1.389,1.704c0.515,0.526,1.087,0.986,1.704,1.4c0.605,0.403,1.255,0.75,1.927,1.031
			c0.683,0.28,1.377,0.493,2.095,0.638c0.727,0.146,1.467,0.223,2.195,0.223c0.727,0,1.467-0.077,2.184-0.223
			s1.423-0.358,2.095-0.638c0.682-0.28,1.332-0.627,1.937-1.031c0.616-0.414,1.188-0.874,1.704-1.4
			c0.515-0.515,0.986-1.087,1.388-1.704c0.403-0.605,0.751-1.253,1.031-1.927c0.28-0.683,0.493-1.377,0.638-2.095
			c0.146-0.727,0.224-1.456,0.224-2.195C420.568,380.514,420.49,379.774,420.344,379.057z"/>
	</g>
</g>
<g>
	<g>
		<path fill="#0e1d41" stroke="#0e1d41" d="M472.158,429.687h-10.417V51.317c0-6.185-5.016-11.201-11.201-11.201h-22.061l-25.014-8.565L383.136,4.475
			C381.02,1.658,377.701,0,374.178,0s-6.841,1.658-8.957,4.475l-20.33,27.076l-25.014,8.565H310.3l-25.014-8.565L264.957,4.475
			C262.841,1.658,259.522,0,255.999,0c-3.523,0-6.842,1.658-8.958,4.475l-20.328,27.076L201.7,40.115h-9.577l-25.014-8.565
			l-20.33-27.076C144.661,1.658,141.345,0,137.821,0c-3.524,0-6.842,1.658-8.958,4.475l-20.328,27.076l-25.014,8.565H61.459
			c-6.185,0-11.201,5.016-11.201,11.201v378.369H39.84c-6.185,0-11.201,5.016-11.201,11.201v59.909
			c0,6.185,5.016,11.201,11.201,11.201h157.919c0.008,0,0.015,0.001,0.021,0.001h116.437c0.008,0,0.015-0.001,0.021-0.001h157.92
			c6.185,0,11.201-5.016,11.201-11.201v-59.909C483.36,434.702,478.344,429.687,472.158,429.687z M355.407,51.629
			c2.124-0.727,3.981-2.077,5.328-3.871l13.443-17.901l13.44,17.901c1.349,1.796,3.205,3.144,5.33,3.871l21.177,7.252l-12.87,18.315
			c-1.29,1.837-1.999,4.02-2.035,6.265l-0.352,22.381l-21.396-6.581c-2.146-0.661-4.441-0.661-6.588,0l-21.397,6.581l-0.352-22.381
			c-0.036-2.245-0.745-4.428-2.035-6.265L334.23,58.881L355.407,51.629z M237.229,51.629c2.124-0.727,3.981-2.077,5.33-3.871
			l13.44-17.901l13.44,17.901c1.349,1.796,3.205,3.144,5.33,3.871l21.177,7.253l-12.87,18.315c-1.29,1.838-1.999,4.02-2.035,6.265
			l-0.352,22.381l-21.396-6.581c-1.073-0.33-2.183-0.495-3.293-0.495c-1.11,0-2.22,0.165-3.293,0.495l-21.396,6.581l-0.352-22.381
			c-0.036-2.245-0.745-4.427-2.035-6.265l-12.87-18.315L237.229,51.629z M119.051,51.629c2.124-0.727,3.981-2.077,5.33-3.871
			l13.44-17.901l13.443,17.901c1.348,1.796,3.204,3.144,5.328,3.871l21.178,7.253l-12.871,18.315
			c-1.29,1.837-1.999,4.02-2.035,6.265l-0.352,22.381l-21.397-6.581c-1.073-0.33-2.183-0.495-3.293-0.495s-2.22,0.165-3.293,0.495
			l-21.396,6.581l-0.352-22.381c-0.036-2.245-0.745-4.428-2.035-6.265l-12.87-18.315L119.051,51.629z M186.579,489.596H51.042
			V452.09h10.417h125.12V489.596z M186.579,429.686H72.66v-37.239h113.919V429.686z M303.016,440.888v48.709h-94.034v-48.709v-48.44
			h94.034V440.888z M314.218,370.044H197.78H72.66V62.518h0.386l17.387,24.74l0.533,33.853c0.056,3.524,1.765,6.815,4.616,8.886
			c0.317,0.231,0.646,0.436,0.981,0.63c0.089,0.052,0.177,0.101,0.267,0.149c0.308,0.167,0.621,0.323,0.941,0.458
			c0.036,0.016,0.069,0.034,0.105,0.048c0.349,0.144,0.706,0.265,1.065,0.374c0.1,0.03,0.201,0.057,0.301,0.084
			c0.309,0.084,0.621,0.155,0.935,0.212c0.066,0.011,0.13,0.028,0.196,0.039c0.366,0.059,0.735,0.096,1.106,0.119
			c0.104,0.006,0.208,0.009,0.313,0.012c0.125,0.005,0.25,0.015,0.375,0.015c0.087,0,0.175-0.018,0.263-0.02
			c0.364-0.008,0.726-0.037,1.09-0.081c0.15-0.018,0.298-0.031,0.448-0.056c0.501-0.082,1-0.187,1.492-0.339l32.361-9.955
			l32.362,9.955c3.374,1.038,7.029,0.428,9.877-1.644c2.851-2.071,4.56-5.362,4.616-8.886l0.533-33.853l11.702-16.651l11.7,16.652
			l0.532,33.853c0.056,3.524,1.765,6.815,4.616,8.886c1.782,1.295,3.879,2.02,6.024,2.126c1.287,0.065,2.591-0.093,3.854-0.483
			l32.361-9.954l32.361,9.954c0.493,0.152,0.994,0.258,1.495,0.339c0.148,0.023,0.295,0.037,0.442,0.055
			c0.364,0.045,0.728,0.072,1.093,0.081c0.087,0.002,0.175,0.02,0.263,0.02c0.125,0,0.251-0.01,0.375-0.015
			c0.104-0.003,0.207-0.006,0.31-0.012c0.372-0.023,0.742-0.06,1.108-0.12c0.063-0.01,0.125-0.026,0.188-0.037
			c0.318-0.057,0.633-0.129,0.945-0.214c0.097-0.027,0.195-0.053,0.292-0.082c0.363-0.109,0.722-0.232,1.074-0.376
			c0.028-0.012,0.055-0.026,0.083-0.038c0.329-0.14,0.651-0.299,0.968-0.472c0.084-0.046,0.167-0.092,0.249-0.139
			c0.338-0.195,0.671-0.402,0.99-0.634c2.851-2.071,4.56-5.362,4.616-8.886l0.532-33.853l11.702-16.651l11.702,16.651l0.533,33.853
			c0.056,3.524,1.765,6.815,4.616,8.886c2.851,2.072,6.508,2.683,9.877,1.644l32.362-9.955l32.361,9.955
			c0.492,0.151,0.991,0.258,1.492,0.339c0.149,0.025,0.298,0.038,0.448,0.056c0.363,0.045,0.726,0.073,1.09,0.081
			c0.087,0.002,0.176,0.02,0.263,0.02c0.125,0,0.251-0.01,0.375-0.015c0.104-0.003,0.208-0.006,0.313-0.012
			c0.371-0.024,0.739-0.06,1.106-0.119c0.066-0.011,0.13-0.027,0.196-0.039c0.315-0.057,0.626-0.128,0.935-0.212
			c0.101-0.027,0.201-0.054,0.301-0.084c0.36-0.109,0.716-0.23,1.065-0.374c0.036-0.015,0.071-0.034,0.106-0.049
			c0.319-0.137,0.632-0.291,0.94-0.458c0.09-0.048,0.178-0.097,0.267-0.149c0.335-0.194,0.665-0.399,0.981-0.63
			c2.851-2.071,4.56-5.362,4.616-8.886l0.533-33.853l17.387-24.74h0.386v367.168H325.42v-37.239h46.982
			c6.185,0,11.201-5.016,11.201-11.201c0-6.185-5.016-11.201-11.201-11.201H314.218z M460.957,489.596H325.42V452.09h125.12h10.417
			V489.596z"/>
	</g>
</g>
<g>
	<g>
		<path d="M173.369,152.765H97.801c-6.185,0-11.201,5.016-11.201,11.201v64.362c0,6.185,5.016,11.201,11.201,11.201h75.57
			c6.185,0,11.201-5.016,11.201-11.201v-64.362C184.571,157.78,179.556,152.765,173.369,152.765z M162.169,217.127h-0.001h-53.166
			v-41.959h53.167V217.127z"/>
	</g>
</g>
<g>
	<g>
		<path d="M293.784,152.765h-75.57c-6.185,0-11.201,5.016-11.201,11.201v64.362c0,6.185,5.016,11.201,11.201,11.201h75.57
			c6.185,0,11.201-5.016,11.201-11.201v-64.362C304.985,157.78,299.97,152.765,293.784,152.765z M282.582,217.127h-53.167v-41.959
			h53.167V217.127z"/>
	</g>
</g>
<g>
	<g>
		<path d="M414.198,152.765h-75.57c-6.185,0-11.201,5.016-11.201,11.201v64.362c0,6.185,5.016,11.201,11.201,11.201h75.57
			c6.185,0,11.201-5.016,11.201-11.201v-64.362C425.4,157.78,420.385,152.765,414.198,152.765z M402.997,217.127H349.83v-41.959
			h53.167V217.127z"/>
	</g>
</g>
<g>
	<g>
		<path d="M173.369,261.71H97.801c-6.185,0-11.201,5.016-11.201,11.201v64.362c0,6.185,5.016,11.201,11.201,11.201h75.57
			c6.185,0,11.201-5.016,11.201-11.201v-64.362C184.571,266.725,179.556,261.71,173.369,261.71z M162.169,326.072h-0.001h-53.166
			v-41.959h53.167V326.072z"/>
	</g>
</g>
<g>
	<g>
		<path d="M293.784,261.71h-75.57c-6.185,0-11.201,5.016-11.201,11.201v64.362c0,6.185,5.016,11.201,11.201,11.201h75.57
			c6.185,0,11.201-5.016,11.201-11.201v-64.362C304.985,266.725,299.97,261.71,293.784,261.71z M282.582,326.072h-53.167v-41.959
			h53.167V326.072z"/>
	</g>
</g>
<g>
	<g>
		<path d="M414.198,261.71h-75.57c-6.185,0-11.201,5.016-11.201,11.201v64.362c0,6.185,5.016,11.201,11.201,11.201h75.57
			c6.185,0,11.201-5.016,11.201-11.201v-64.362C425.4,266.725,420.385,261.71,414.198,261.71z M402.997,326.072H349.83v-41.959
			h53.167V326.072z"/>
	</g>
</g>
<g>
</g>
<g>
</g>
<g>
</g>
<g>
</g>
<g>
</g>
<g>
</g>
<g>
</g>
<g>
</g>
<g>
</g>
<g>
</g>
<g>
</g>
<g>
</g>
<g>
</g>
<g>
</g>
<g>
</g>
</svg>
